<svg xmlns="http://www.w3.org/2000/svg" width="243" height="4" viewBox="0 0 243 4">
  <g id="Group_395" data-name="Group 395" transform="translate(-1370.322 -1139.764)">
    <g id="Component_28_31" data-name="Component 28 – 31" transform="translate(1612.823 1139.764)">
      <path id="Path_3" data-name="Path 3" d="M1370.822,1174.764v4" transform="translate(-1370.822 -1174.764)" fill="none" stroke="#d1d4d8" stroke-width="1"/>
    </g>
    <g id="Component_28_32" data-name="Component 28 – 32" transform="translate(1601.823 1139.764)">
      <path id="Path_3-2" data-name="Path 3" d="M1370.822,1174.764v4" transform="translate(-1370.822 -1174.764)" fill="none" stroke="#d1d4d8" stroke-width="1"/>
    </g>
    <g id="Component_28_33" data-name="Component 28 – 33" transform="translate(1590.823 1139.764)">
      <path id="Path_3-3" data-name="Path 3" d="M1370.822,1174.764v4" transform="translate(-1370.822 -1174.764)" fill="none" stroke="#d1d4d8" stroke-width="1"/>
    </g>
    <g id="Component_28_34" data-name="Component 28 – 34" transform="translate(1579.823 1139.764)">
      <path id="Path_3-4" data-name="Path 3" d="M1370.822,1174.764v4" transform="translate(-1370.822 -1174.764)" fill="none" stroke="#d1d4d8" stroke-width="1"/>
    </g>
    <g id="Component_28_35" data-name="Component 28 – 35" transform="translate(1568.823 1139.764)">
      <path id="Path_3-5" data-name="Path 3" d="M1370.822,1174.764v4" transform="translate(-1370.822 -1174.764)" fill="none" stroke="#d1d4d8" stroke-width="1"/>
    </g>
    <g id="Component_28_36" data-name="Component 28 – 36" transform="translate(1557.823 1139.764)">
      <path id="Path_3-6" data-name="Path 3" d="M1370.822,1174.764v4" transform="translate(-1370.822 -1174.764)" fill="none" stroke="#d1d4d8" stroke-width="1"/>
    </g>
    <g id="Component_28_37" data-name="Component 28 – 37" transform="translate(1546.823 1139.764)">
      <path id="Path_3-7" data-name="Path 3" d="M1370.822,1174.764v4" transform="translate(-1370.822 -1174.764)" fill="none" stroke="#d1d4d8" stroke-width="1"/>
    </g>
    <g id="Component_28_38" data-name="Component 28 – 38" transform="translate(1535.823 1139.764)">
      <path id="Path_3-8" data-name="Path 3" d="M1370.822,1174.764v4" transform="translate(-1370.822 -1174.764)" fill="none" stroke="#d1d4d8" stroke-width="1"/>
    </g>
    <g id="Component_28_39" data-name="Component 28 – 39" transform="translate(1524.823 1139.764)">
      <path id="Path_3-9" data-name="Path 3" d="M1370.822,1174.764v4" transform="translate(-1370.822 -1174.764)" fill="none" stroke="#d1d4d8" stroke-width="1"/>
    </g>
    <g id="Component_28_40" data-name="Component 28 – 40" transform="translate(1513.823 1139.764)">
      <path id="Path_3-10" data-name="Path 3" d="M1370.822,1174.764v4" transform="translate(-1370.822 -1174.764)" fill="none" stroke="#d1d4d8" stroke-width="1"/>
    </g>
    <g id="Component_28_41" data-name="Component 28 – 41" transform="translate(1502.823 1139.764)">
      <path id="Path_3-11" data-name="Path 3" d="M1370.822,1174.764v4" transform="translate(-1370.822 -1174.764)" fill="none" stroke="#d1d4d8" stroke-width="1"/>
    </g>
    <g id="Component_28_42" data-name="Component 28 – 42" transform="translate(1491.823 1139.764)">
      <path id="Path_3-12" data-name="Path 3" d="M1370.822,1174.764v4" transform="translate(-1370.822 -1174.764)" fill="none" stroke="#d1d4d8" stroke-width="1"/>
    </g>
    <g id="Component_28_43" data-name="Component 28 – 43" transform="translate(1480.823 1139.764)">
      <path id="Path_3-13" data-name="Path 3" d="M1370.822,1174.764v4" transform="translate(-1370.822 -1174.764)" fill="none" stroke="#d1d4d8" stroke-width="1"/>
    </g>
    <g id="Component_28_44" data-name="Component 28 – 44" transform="translate(1469.823 1139.764)">
      <path id="Path_3-14" data-name="Path 3" d="M1370.822,1174.764v4" transform="translate(-1370.822 -1174.764)" fill="none" stroke="#d1d4d8" stroke-width="1"/>
    </g>
    <g id="Component_28_45" data-name="Component 28 – 45" transform="translate(1458.823 1139.764)">
      <path id="Path_3-15" data-name="Path 3" d="M1370.822,1174.764v4" transform="translate(-1370.822 -1174.764)" fill="none" stroke="#d1d4d8" stroke-width="1"/>
    </g>
    <g id="Component_28_46" data-name="Component 28 – 46" transform="translate(1447.823 1139.764)">
      <path id="Path_3-16" data-name="Path 3" d="M1370.822,1174.764v4" transform="translate(-1370.822 -1174.764)" fill="none" stroke="#d1d4d8" stroke-width="1"/>
    </g>
    <g id="Component_28_47" data-name="Component 28 – 47" transform="translate(1436.822 1139.764)">
      <path id="Path_3-17" data-name="Path 3" d="M1370.822,1174.764v4" transform="translate(-1370.822 -1174.764)" fill="none" stroke="#d1d4d8" stroke-width="1"/>
    </g>
    <g id="Component_28_48" data-name="Component 28 – 48" transform="translate(1425.822 1139.764)">
      <path id="Path_3-18" data-name="Path 3" d="M1370.822,1174.764v4" transform="translate(-1370.822 -1174.764)" fill="none" stroke="#d1d4d8" stroke-width="1"/>
    </g>
    <g id="Component_28_49" data-name="Component 28 – 49" transform="translate(1414.822 1139.764)">
      <path id="Path_3-19" data-name="Path 3" d="M1370.822,1174.764v4" transform="translate(-1370.822 -1174.764)" fill="none" stroke="#d1d4d8" stroke-width="1"/>
    </g>
    <g id="Component_28_50" data-name="Component 28 – 50" transform="translate(1403.822 1139.764)">
      <path id="Path_3-20" data-name="Path 3" d="M1370.822,1174.764v4" transform="translate(-1370.822 -1174.764)" fill="none" stroke="#d1d4d8" stroke-width="1"/>
    </g>
    <g id="Component_28_51" data-name="Component 28 – 51" transform="translate(1392.822 1139.764)">
      <path id="Path_3-21" data-name="Path 3" d="M1370.822,1174.764v4" transform="translate(-1370.822 -1174.764)" fill="none" stroke="#d1d4d8" stroke-width="1"/>
    </g>
    <g id="Component_28_52" data-name="Component 28 – 52" transform="translate(1381.822 1139.764)">
      <path id="Path_3-22" data-name="Path 3" d="M1370.822,1174.764v4" transform="translate(-1370.822 -1174.764)" fill="none" stroke="#d1d4d8" stroke-width="1"/>
    </g>
    <g id="Component_28_53" data-name="Component 28 – 53" transform="translate(1370.822 1139.764)">
      <path id="Path_3-23" data-name="Path 3" d="M1370.822,1174.764v4" transform="translate(-1370.822 -1174.764)" fill="none" stroke="#d1d4d8" stroke-width="1"/>
    </g>
  </g>
</svg>
