<svg xmlns="http://www.w3.org/2000/svg" width="507" height="4" viewBox="0 0 507 4">
  <g id="Group_395" data-name="Group 395" transform="translate(-1370.322 -1139.764)">
    <g id="Component_28_29" data-name="Component 28 – 29" transform="translate(1876.823 1139.764)">
      <path id="Path_3" data-name="Path 3" d="M1370.822,1174.764v4" transform="translate(-1370.822 -1174.764)" fill="none" stroke="#d1d4d8" stroke-width="1"/>
    </g>
    <g id="Component_28_22" data-name="Component 28 – 22" transform="translate(1853.823 1139.764)">
      <path id="Path_3-2" data-name="Path 3" d="M1370.822,1174.764v4" transform="translate(-1370.822 -1174.764)" fill="none" stroke="#d1d4d8" stroke-width="1"/>
    </g>
    <g id="Component_28_21" data-name="Component 28 – 21" transform="translate(1830.823 1139.764)">
      <path id="Path_3-3" data-name="Path 3" d="M1370.822,1174.764v4" transform="translate(-1370.822 -1174.764)" fill="none" stroke="#d1d4d8" stroke-width="1"/>
    </g>
    <g id="Component_28_20" data-name="Component 28 – 20" transform="translate(1807.823 1139.764)">
      <path id="Path_3-4" data-name="Path 3" d="M1370.822,1174.764v4" transform="translate(-1370.822 -1174.764)" fill="none" stroke="#d1d4d8" stroke-width="1"/>
    </g>
    <g id="Component_28_19" data-name="Component 28 – 19" transform="translate(1784.823 1139.764)">
      <path id="Path_3-5" data-name="Path 3" d="M1370.822,1174.764v4" transform="translate(-1370.822 -1174.764)" fill="none" stroke="#d1d4d8" stroke-width="1"/>
    </g>
    <g id="Component_28_18" data-name="Component 28 – 18" transform="translate(1761.823 1139.764)">
      <path id="Path_3-6" data-name="Path 3" d="M1370.822,1174.764v4" transform="translate(-1370.822 -1174.764)" fill="none" stroke="#d1d4d8" stroke-width="1"/>
    </g>
    <g id="Component_28_17" data-name="Component 28 – 17" transform="translate(1738.823 1139.764)">
      <path id="Path_3-7" data-name="Path 3" d="M1370.822,1174.764v4" transform="translate(-1370.822 -1174.764)" fill="none" stroke="#d1d4d8" stroke-width="1"/>
    </g>
    <g id="Component_28_16" data-name="Component 28 – 16" transform="translate(1715.823 1139.764)">
      <path id="Path_3-8" data-name="Path 3" d="M1370.822,1174.764v4" transform="translate(-1370.822 -1174.764)" fill="none" stroke="#d1d4d8" stroke-width="1"/>
    </g>
    <g id="Component_28_15" data-name="Component 28 – 15" transform="translate(1692.823 1139.764)">
      <path id="Path_3-9" data-name="Path 3" d="M1370.822,1174.764v4" transform="translate(-1370.822 -1174.764)" fill="none" stroke="#d1d4d8" stroke-width="1"/>
    </g>
    <g id="Component_28_14" data-name="Component 28 – 14" transform="translate(1669.823 1139.764)">
      <path id="Path_3-10" data-name="Path 3" d="M1370.822,1174.764v4" transform="translate(-1370.822 -1174.764)" fill="none" stroke="#d1d4d8" stroke-width="1"/>
    </g>
    <g id="Component_28_13" data-name="Component 28 – 13" transform="translate(1646.823 1139.764)">
      <path id="Path_3-11" data-name="Path 3" d="M1370.822,1174.764v4" transform="translate(-1370.822 -1174.764)" fill="none" stroke="#d1d4d8" stroke-width="1"/>
    </g>
    <g id="Component_28_12" data-name="Component 28 – 12" transform="translate(1623.823 1139.764)">
      <path id="Path_3-12" data-name="Path 3" d="M1370.822,1174.764v4" transform="translate(-1370.822 -1174.764)" fill="none" stroke="#d1d4d8" stroke-width="1"/>
    </g>
    <g id="Component_28_11" data-name="Component 28 – 11" transform="translate(1600.823 1139.764)">
      <path id="Path_3-13" data-name="Path 3" d="M1370.822,1174.764v4" transform="translate(-1370.822 -1174.764)" fill="none" stroke="#d1d4d8" stroke-width="1"/>
    </g>
    <g id="Component_28_10" data-name="Component 28 – 10" transform="translate(1577.823 1139.764)">
      <path id="Path_3-14" data-name="Path 3" d="M1370.822,1174.764v4" transform="translate(-1370.822 -1174.764)" fill="none" stroke="#d1d4d8" stroke-width="1"/>
    </g>
    <g id="Component_28_9" data-name="Component 28 – 9" transform="translate(1554.823 1139.764)">
      <path id="Path_3-15" data-name="Path 3" d="M1370.822,1174.764v4" transform="translate(-1370.822 -1174.764)" fill="none" stroke="#d1d4d8" stroke-width="1"/>
    </g>
    <g id="Component_28_8" data-name="Component 28 – 8" transform="translate(1531.823 1139.764)">
      <path id="Path_3-16" data-name="Path 3" d="M1370.822,1174.764v4" transform="translate(-1370.822 -1174.764)" fill="none" stroke="#d1d4d8" stroke-width="1"/>
    </g>
    <g id="Component_28_7" data-name="Component 28 – 7" transform="translate(1508.822 1139.764)">
      <path id="Path_3-17" data-name="Path 3" d="M1370.822,1174.764v4" transform="translate(-1370.822 -1174.764)" fill="none" stroke="#d1d4d8" stroke-width="1"/>
    </g>
    <g id="Component_28_6" data-name="Component 28 – 6" transform="translate(1485.822 1139.764)">
      <path id="Path_3-18" data-name="Path 3" d="M1370.822,1174.764v4" transform="translate(-1370.822 -1174.764)" fill="none" stroke="#d1d4d8" stroke-width="1"/>
    </g>
    <g id="Component_28_5" data-name="Component 28 – 5" transform="translate(1462.822 1139.764)">
      <path id="Path_3-19" data-name="Path 3" d="M1370.822,1174.764v4" transform="translate(-1370.822 -1174.764)" fill="none" stroke="#d1d4d8" stroke-width="1"/>
    </g>
    <g id="Component_28_4" data-name="Component 28 – 4" transform="translate(1439.822 1139.764)">
      <path id="Path_3-20" data-name="Path 3" d="M1370.822,1174.764v4" transform="translate(-1370.822 -1174.764)" fill="none" stroke="#d1d4d8" stroke-width="1"/>
    </g>
    <g id="Component_28_3" data-name="Component 28 – 3" transform="translate(1416.822 1139.764)">
      <path id="Path_3-21" data-name="Path 3" d="M1370.822,1174.764v4" transform="translate(-1370.822 -1174.764)" fill="none" stroke="#d1d4d8" stroke-width="1"/>
    </g>
    <g id="Component_28_2" data-name="Component 28 – 2" transform="translate(1393.822 1139.764)">
      <path id="Path_3-22" data-name="Path 3" d="M1370.822,1174.764v4" transform="translate(-1370.822 -1174.764)" fill="none" stroke="#d1d4d8" stroke-width="1"/>
    </g>
    <g id="Component_28_30" data-name="Component 28 – 30" transform="translate(1370.822 1139.764)">
      <path id="Path_3-23" data-name="Path 3" d="M1370.822,1174.764v4" transform="translate(-1370.822 -1174.764)" fill="none" stroke="#d1d4d8" stroke-width="1"/>
    </g>
  </g>
</svg>
